# xmcd CD database file
#
# Track frame offsets:
#	150
#	23882
#	47417
#
# Disc length: 947 seconds
#
# Revision: 0
# Processed by: cddbd v1.5.1PL0 Copyright (c) Steve Scherf et al.
# Submitted via: CDex 1.51
#
DISCID=1903b103
DTITLE=ハイポジ - 君の声は僕の音楽
DYEAR=1997
DGENRE=Pop
TTITLE0=君の声は僕の音楽 long call edit
TTITLE1=君の声は僕の音楽 person to person edit
TTITLE2=君の声は僕の音楽 collect call edit
EXTD=YEAR: 1997
EXTT0=
EXTT1=
EXTT2=
PLAYORDER=
